<svg xmlns:xlink="http://www.w3.org/1999/xlink" width="24" height="24" viewBox="0 0 24 24" fill="currentColor" stroke-width="1" xmlns="http://www.w3.org/2000/svg"><path d="M20.9539 8.29298C20.9117 7.3364 20.757 6.67876 20.5354 6.1089C20.3068 5.50403 19.9551 4.96247 19.4944 4.51227C19.0441 4.05507 18.4991 3.69982 17.9012 3.47478C17.328 3.25319 16.6738 3.0985 15.7172 3.05633C14.7536 3.01058 14.4476 3 12.0033 3C9.55905 3 9.25311 3.01058 8.29297 3.05276C7.33639 3.09493 6.67875 3.24976 6.10904 3.47121C5.50402 3.69982 4.96246 4.0515 4.51227 4.51227C4.05507 4.96247 3.69995 5.5076 3.47478 6.10547C3.25319 6.67876 3.0985 7.33282 3.05633 8.2894C3.01057 9.25312 3 9.55906 3 12.0033C3 14.4476 3.01057 14.7536 3.05276 15.7137C3.09493 16.6703 3.24975 17.3279 3.47135 17.8978C3.69995 18.5026 4.05507 19.0442 4.51227 19.4944C4.96246 19.9516 5.50759 20.3068 6.10547 20.5318C6.67875 20.7535 7.33281 20.9081 8.28954 20.9503C9.24954 20.9926 9.55562 21.003 11.9999 21.003C14.4442 21.003 14.7502 20.9926 15.7102 20.9503C16.6667 20.9081 17.3245 20.7535 17.8941 20.5318C19.1041 20.0641 20.0607 19.1075 20.5285 17.8978C20.7499 17.3245 20.9047 16.6703 20.9469 15.7137C20.989 14.7536 20.9996 14.4476 20.9996 12.0033C20.9996 9.55906 20.996 9.25312 20.9539 8.29298ZM19.3327 15.6433C19.2939 16.5226 19.1462 16.9973 19.0232 17.3139C18.7206 18.0983 18.0982 18.7206 17.3138 19.0232C16.9973 19.1462 16.5192 19.294 15.6433 19.3326C14.6937 19.3749 14.409 19.3852 12.0069 19.3852C9.60481 19.3852 9.31644 19.3749 8.37031 19.3326C7.49108 19.294 7.01629 19.1462 6.69977 19.0232C6.30948 18.8789 5.95421 18.6503 5.66586 18.3513C5.36691 18.0594 5.13832 17.7078 4.99407 17.3175C4.87097 17.0009 4.72329 16.5226 4.68468 15.6469C4.64237 14.6973 4.63194 14.4124 4.63194 12.0103C4.63194 9.60825 4.64237 9.31988 4.68468 8.37389C4.72329 7.49466 4.87097 7.01987 4.99407 6.70335C5.13832 6.31292 5.36691 5.95779 5.66942 5.6693C5.96122 5.37035 6.31291 5.14176 6.70335 4.99764C7.01986 4.87455 7.49823 4.72687 8.37388 4.68813C9.32345 4.64595 9.60837 4.63536 12.0103 4.63536C14.416 4.63536 14.7007 4.64595 15.6469 4.68813C16.5262 4.72687 17.0009 4.87455 17.3174 4.99764C17.7078 5.14176 18.063 5.37035 18.3513 5.6693C18.6503 5.96123 18.8788 6.31292 19.0232 6.70335C19.1462 7.01987 19.2939 7.4981 19.3327 8.37389C19.3748 9.32346 19.3854 9.60825 19.3854 12.0103C19.3854 14.4124 19.3748 14.6937 19.3327 15.6433Z"></path><path d="M12.0033 7.37854C9.45009 7.37854 7.37854 9.44995 7.37854 12.0033C7.37854 14.5567 9.45009 16.628 12.0033 16.628C14.5567 16.628 16.628 14.5567 16.628 12.0033C16.628 9.44995 14.5567 7.37854 12.0033 7.37854ZM12.0033 15.0033C10.3469 15.0033 9.00334 13.6598 9.00334 12.0033C9.00334 10.3468 10.3469 9.00333 12.0033 9.00333C13.6599 9.00333 15.0033 10.3468 15.0033 12.0033C15.0033 13.6598 13.6599 15.0033 12.0033 15.0033Z"></path><path d="M17.8905 7.19554C17.8905 7.79166 17.4072 8.27502 16.811 8.27502C16.2148 8.27502 15.7314 7.79166 15.7314 7.19554C15.7314 6.5993 16.2148 6.11609 16.811 6.11609C17.4072 6.11609 17.8905 6.5993 17.8905 7.19554Z"></path></svg>