<svg xmlns:xlink="http://www.w3.org/1999/xlink" width="24" height="24" viewBox="0 0 24 24" fill="currentColor" stroke-width="1" xmlns="http://www.w3.org/2000/svg"><path d="M10.4354 2.42562C10.9188 2.14917 11.4396 1.89722 12.0047 1.87622C12.0081 3.0625 12.0047 4.24878 12.0047 5.43506C11.9979 5.84798 12.0149 6.2609 11.9979 6.67382L11.9911 6.67732C11.3954 6.31339 10.7792 5.98445 10.1733 5.63102C9.29165 5.12711 8.40998 4.62671 7.52832 4.1228C8.49509 3.55241 9.46526 2.99251 10.4354 2.42562Z" fill="#717171"></path><path d="M12.0054 1.87622C12.6624 1.88672 13.2513 2.24015 13.8129 2.55859C14.698 3.08 15.5933 3.5874 16.475 4.1193C15.229 4.82267 13.99 5.53304 12.7475 6.2399C12.499 6.38688 12.2436 6.51635 12.002 6.67382C12.0224 6.2609 12.0054 5.84798 12.0088 5.43505C12.0054 4.24878 12.0088 3.0625 12.0054 1.87622Z" fill="#2C2C2C"></path><path d="M16.471 4.1193L16.4847 4.1123L16.4949 4.1228C16.4847 5.86548 16.4983 7.61165 16.4881 9.35432L16.471 9.36482C14.9835 8.46199 13.4822 7.58016 11.998 6.67383C12.2397 6.51636 12.495 6.38688 12.7435 6.23991C13.986 5.53304 15.2251 4.82267 16.471 4.1193Z" fill="#1D1D1D"></path><path d="M4.4923 5.91447C5.48971 5.31258 6.49732 4.72469 7.50153 4.1333C7.50494 5.87597 7.49813 7.62215 7.50494 9.36482C7.04538 9.13036 6.60625 8.85392 6.15351 8.60896C5.21057 8.06306 4.25742 7.53816 3.32129 6.98527C3.58341 6.50586 4.03615 6.18042 4.4923 5.91447Z" fill="#232323"></path><path d="M7.50195 4.1333L7.52919 4.1228C8.41085 4.62671 9.29251 5.12712 10.1742 5.63102C10.7801 5.98096 11.3963 6.31339 11.992 6.67733C10.5146 7.56266 9.04061 8.45149 7.56323 9.33333C7.54961 9.34033 7.52238 9.35782 7.50876 9.36482C7.49855 7.62215 7.50536 5.87597 7.50195 4.1333Z" fill="#676767"></path><path d="M16.4951 4.1228C17.4755 4.6932 18.449 5.27409 19.4192 5.85498C19.906 6.14193 20.4268 6.45337 20.6924 6.98527C19.3001 7.78312 17.9044 8.57047 16.5121 9.36832L16.4883 9.35432C16.4951 7.61165 16.4849 5.86898 16.4951 4.1228Z" fill="#626262"></path><path d="M3.07246 7.7867C3.12012 7.51025 3.18139 7.23031 3.32096 6.98535C4.2605 7.53825 5.21024 8.06315 6.15318 8.60905C6.60593 8.8575 7.04506 9.13395 7.50461 9.36491L7.50121 9.36841C6 10.2607 4.49878 11.1636 3.00098 12.0629C3.00778 11.1706 3.00098 10.2817 3.00438 9.3894C3.00438 8.8575 2.98736 8.3186 3.07246 7.7867Z" fill="#404040"></path><path d="M16.5127 9.37182C17.905 8.57397 19.3007 7.78312 20.6929 6.98877C20.9006 7.3842 20.9619 7.83561 20.9959 8.27303C20.9993 9.53979 20.9959 10.8066 20.9959 12.0733L20.9721 12.0768C20.887 11.9753 20.7644 11.9263 20.6555 11.8599C19.2768 11.027 17.8914 10.2047 16.5127 9.37182Z" fill="#2C2C2C"></path><path d="M7.50536 9.36475C7.51897 9.35775 7.54621 9.34025 7.55982 9.33325C7.55982 9.34725 7.55982 9.37874 7.55982 9.39274C8.30532 9.83366 9.06444 10.2536 9.81675 10.684C10.5452 11.0934 11.2669 11.5133 11.9988 11.9228C11.9988 13.6759 12.0056 15.4291 11.9954 17.1788C10.4976 16.3284 9.00316 15.4746 7.50876 14.6243L7.50195 14.6208C7.50876 12.8711 7.50195 11.1179 7.50195 9.36825L7.50536 9.36475Z" fill="#C9C9C9"></path><path d="M16.4715 9.36475L16.4885 9.35425C16.4919 11.1109 16.4885 12.8676 16.4885 14.6243L16.4817 14.6278C14.9839 15.4711 13.4929 16.3319 11.9951 17.1788C12.0053 15.4256 11.9985 13.6724 11.9985 11.9228C13.4895 11.0689 14.9873 10.2291 16.4715 9.36475Z" fill="#E3E3E3"></path><path d="M16.4883 9.35425L16.5121 9.36825C17.8908 10.2011 19.2762 11.0269 20.6583 11.8563C20.7672 11.9228 20.8898 11.9753 20.9749 12.0732C19.4771 12.9166 17.9895 13.7809 16.4883 14.6208C16.4883 12.8676 16.4883 11.1109 16.4883 9.35425Z" fill="black"></path><path d="M3.00098 12.0627C4.49878 11.1599 6 10.2606 7.50121 9.36475C7.50121 11.1144 7.50461 12.8641 7.50121 14.6173C6.60593 14.1309 5.72767 13.6095 4.8392 13.109C4.22986 12.7626 3.62393 12.4162 3.018 12.0697L3.00098 12.0627Z" fill="#2C2C2C"></path><path d="M3.01511 12.0732C3.62444 12.4197 4.23037 12.7661 4.83631 13.1125C5.72478 13.6095 6.60304 14.1344 7.49832 14.6208L7.50513 14.6243C6.12306 15.4466 4.7478 16.2795 3.36573 17.1053C3.11042 16.6854 3.04915 16.178 3.01511 15.6951C2.98447 14.7502 3.0083 13.8054 3.00149 12.8606C3.0117 12.5946 2.99128 12.3322 3.01511 12.0732Z" fill="black"></path><path d="M16.4888 14.6243C17.99 13.7844 19.4776 12.9201 20.9754 12.0767L20.9992 12.0732C20.9992 13.151 20.9992 14.2288 20.9992 15.3066C21.0094 15.919 20.9584 16.5734 20.6418 17.1123C19.4537 16.4054 18.2691 15.6881 17.0811 14.9777C16.8802 14.8622 16.6896 14.7327 16.4854 14.6278L16.4888 14.6243Z" fill="#2C2C2C"></path><path d="M3.36914 17.1019C4.75121 16.276 6.12647 15.4432 7.50854 14.6208C7.49492 16.3705 7.50513 18.1202 7.50513 19.8734C6.72219 19.4115 5.93584 18.9565 5.15289 18.4946C4.8295 18.3022 4.50271 18.1202 4.18953 17.9067C3.87295 17.6898 3.56998 17.4378 3.36914 17.1019Z" fill="#2C2C2C"></path><path d="M7.5083 14.6208C9.0027 15.4747 10.5005 16.3285 11.9949 17.1754L12.0017 17.1789C10.4971 18.0607 9.00951 18.974 7.5083 19.8629L7.50149 19.8664C7.5049 18.1237 7.49468 16.374 7.5083 14.6208Z" fill="#404040"></path><path d="M11.9951 17.1787C13.4929 16.3319 14.9839 15.471 16.4817 14.6277C16.4988 16.3774 16.4817 18.1305 16.4885 19.8802L16.4783 19.8732C14.9907 18.9704 13.4929 18.085 12.0019 17.1822L11.9951 17.1787Z" fill="#676767"></path><path d="M16.4814 14.6277C16.6857 14.7327 16.8797 14.8621 17.0772 14.9776C18.2652 15.688 19.4498 16.4019 20.6379 17.1122C20.4574 17.4447 20.1511 17.6756 19.8515 17.8891C19.392 18.197 18.9052 18.463 18.432 18.7464C17.7852 19.1243 17.135 19.5023 16.4883 19.8802C16.4814 18.1305 16.4985 16.3774 16.4814 14.6277Z" fill="#232323"></path><path d="M7.51172 19.8698C9.00953 18.9775 10.5005 18.0676 12.0051 17.1858C12.0085 18.834 12.0085 20.4787 12.0051 22.1269C11.6239 22.1129 11.246 22.0079 10.9124 21.8189C9.77545 21.168 8.63507 20.5312 7.51172 19.8698Z" fill="#2C2C2C"></path><path d="M12.0049 17.1824C13.4959 18.0852 14.9937 18.9705 16.4813 19.8734C15.9843 20.1708 15.4737 20.4508 14.9699 20.7412C14.289 21.1261 13.6116 21.5181 12.9308 21.903C12.6415 22.0395 12.3249 22.1304 12.0049 22.1234C12.0049 20.4753 12.0049 18.8306 12.0049 17.1824Z" fill="#717171"></path></svg>