<svg xmlns:xlink="http://www.w3.org/1999/xlink" width="24" height="24" viewBox="0 0 19 19" fill="currentColor" stroke-width="" class="p-[2px]" xmlns="http://www.w3.org/2000/svg"><path fill-rule="evenodd" clip-rule="evenodd" d="M18 8.41632C18.1286 10.7306 17.2929 13.1735 15.75 14.9735C15.6536 15.0699 15.5571 15.1824 15.4607 15.2949C15.3643 15.4074 15.2679 15.5199 15.1714 15.6163C13.4357 17.2235 10.9929 18.1235 8.61429 18.0592C6.3 17.9949 4.05 16.9663 2.50714 15.2949C0.9 13.6235 0 11.3735 0 9.05917V1.02346C0 0.316316 0.771429 -0.262255 1.41429 0.123459C2.05714 0.509174 3.72857 1.7306 3.72857 1.7306C5.27143 0.637745 7.13572 0.0591735 9 0.0591735C11.3786 -0.0051122 13.7571 1.02346 15.4929 2.82346C16.9071 4.30203 17.8714 6.29489 18 8.41632ZM6.49289 13.1091C6.81431 13.4306 7.26431 13.6234 7.71431 13.6234C8.16431 13.6234 8.61431 13.4949 9.06431 13.1091L14.2715 7.902C14.9786 7.19486 14.9786 6.102 14.2715 5.39486C13.5643 4.68772 12.4715 4.68772 11.7643 5.39486L7.7786 9.38057L6.23574 7.83772C5.5286 7.13057 4.43574 7.13057 3.7286 7.83772C3.02146 8.54486 3.02146 9.63772 3.7286 10.3449L6.49289 13.1091Z"></path></svg>