<svg xmlns:xlink="http://www.w3.org/1999/xlink" width="40" height="40" viewBox="0 0 24 24" fill="currentColor" stroke-width="1" class="m-auto lg:ml-2 lg:inline-block " xmlns="http://www.w3.org/2000/svg"><path opacity="0.3" d="M20 5.75H17.5L19.5 11H22L20 5.75Z" fill="#FF385C"></path><path fill-rule="evenodd" clip-rule="evenodd" d="M13.25 6.5H14.75V10.25H21.5V11.75H13.25V6.5Z"></path><path d="M7 21C5.485 21 4.25 19.765 4.25 18.25C4.25 16.735 5.485 15.5 7 15.5C8.515 15.5 9.75 16.735 9.75 18.25C9.75 19.765 8.515 21 7 21ZM7 17C6.31 17 5.75 17.56 5.75 18.25C5.75 18.94 6.31 19.5 7 19.5C7.69 19.5 8.25 18.94 8.25 18.25C8.25 17.56 7.69 17 7 17Z"></path><path d="M17 21C15.485 21 14.25 19.765 14.25 18.25C14.25 16.735 15.485 15.5 17 15.5C18.515 15.5 19.75 16.735 19.75 18.25C19.75 19.765 18.515 21 17 21ZM17 17C16.31 17 15.75 17.56 15.75 18.25C15.75 18.94 16.31 19.5 17 19.5C17.69 19.5 18.25 18.94 18.25 18.25C18.25 17.56 17.69 17 17 17Z"></path><path d="M2.75 16H5.425C4.715 16.495 4.25 17.32 4.25 18.25C3.42 18.25 2.75 17.58 2.75 16.75V16Z" fill="#FF385C" opacity="0.5"></path><path d="M15.425 16C14.715 16.5 14.25 17.32 14.25 18.25H9.74995C9.74995 17.32 9.28495 16.495 8.57495 16H15.425Z" fill="#FF385C" opacity="0.5"></path><path d="M18.575 16C19.285 16.5 19.75 17.32 19.75 18.25C20.58 18.25 21.25 17.58 21.25 16.75V16H18.575Z" fill="#FF385C" opacity="0.5"></path><path d="M15.15 19C15.055 18.77 15 18.515 15 18.25C15 17.985 15.055 17.73 15.15 17.5H8.84998C8.94498 17.73 8.99998 17.985 8.99998 18.25C8.99998 18.515 8.94498 18.77 8.84998 19H15.15Z"></path><path d="M20.32 6.45C19.99 5.58 19.145 5 18.215 5H14.735C14.61 3.875 13.655 3 12.5 3H4.25C3.01 3 2 4.01 2 5.25V16.75C2 17.99 3.01 19 4.25 19H5.15C5.055 18.77 5 18.515 5 18.25C5 17.985 5.055 17.73 5.15 17.5H4.25C3.835 17.5 3.5 17.165 3.5 16.75V5.25C3.5 4.835 3.835 4.5 4.25 4.5H12.5C12.915 4.5 13.25 4.835 13.25 5.25V6.5H18.215C18.525 6.5 18.805 6.695 18.915 6.985L20.5 11.14V16.75C20.5 17.165 20.165 17.5 19.75 17.5H18.85C18.945 17.73 19 17.985 19 18.25C19 18.515 18.945 18.77 18.85 19H19.75C20.99 19 22 17.99 22 16.75V10.86L20.32 6.45Z"></path><path d="M11.25 11H5.5C4.95 11 4.5 10.55 4.5 10V6.5C4.5 5.95 4.95 5.5 5.5 5.5H11.25C11.8 5.5 12.25 5.95 12.25 6.5V10C12.25 10.55 11.8 11 11.25 11Z" fill="#FF385C"></path></svg>