<svg xmlns:xlink="http://www.w3.org/1999/xlink" width="40" height="40" viewBox="0 0 24 24" fill="currentColor" stroke-width="1" class="m-auto lg:ml-2 lg:inline-block text-xs lg:text-base" xmlns="http://www.w3.org/2000/svg"><path d="M17.24 6.94492L12.3 3.33992C11.525 2.77492 10.435 2.93992 9.87 3.71492L7.505 6.94492H17.24Z" fill="#FF385C"></path><path d="M20.095 6.96509H17.61C18.515 6.96509 19.21 7.76009 19.095 8.65509L17.975 16.1251C17.88 16.8701 17.24 17.4251 16.49 17.4251H18.975C19.725 17.4251 20.365 16.8701 20.46 16.1251L21.58 8.65509C21.7 7.76009 21 6.96509 20.095 6.96509Z" opacity="0.3" fill="#FF385C"></path><path d="M6.99499 7.71509C6.57757 7.71509 6.24499 8.05093 6.24499 8.46009L6.23499 16.4401C6.23499 16.4402 6.23499 16.44 6.23499 16.4401C6.2352 16.8474 6.57107 17.1851 6.98499 17.1851H18.635C19.0101 17.1851 19.3241 16.9081 19.371 16.5402L19.3716 16.5355L20.4916 8.55587C20.5469 8.10875 20.1995 7.71509 19.75 7.71509H6.99499ZM4.74499 8.45958C4.74526 7.21897 5.75257 6.21509 6.99499 6.21509H19.75C21.1092 6.21509 22.1512 7.40929 21.9789 8.75067L21.9783 8.755L20.8583 16.7351C20.7129 17.8546 19.7582 18.6851 18.635 18.6851H6.98499C5.74903 18.6851 4.73499 17.6826 4.73499 16.4401L4.74499 8.46009C4.74499 8.45992 4.74499 8.45975 4.74499 8.45958Z" fill-rule="evenodd" clip-rule="evenodd"></path><path fill-rule="evenodd" clip-rule="evenodd" d="M20.23 15.1951H5.48499V13.6951H20.23V15.1951Z"></path><path d="M8.15991 18.4351C8.15991 19.0195 8.63778 19.5001 9.22991 19.5001C9.82339 19.5001 10.2999 19.0232 10.2999 18.4351H11.7999C11.7999 19.857 10.6464 21.0001 9.22991 21.0001C7.81204 21.0001 6.65991 19.8506 6.65991 18.4351H8.15991Z" fill-rule="evenodd" clip-rule="evenodd"></path><path d="M14.9351 18.4351C14.9351 19.0195 15.4129 19.5001 16.0051 19.5001C16.5985 19.5001 17.0751 19.0232 17.0751 18.4351H18.5751C18.5751 19.857 17.4216 21.0001 16.0051 21.0001C14.5872 21.0001 13.4351 19.8506 13.4351 18.4351H14.9351Z" fill-rule="evenodd" clip-rule="evenodd"></path><path d="M2.03817 4.98359C2.16869 4.59048 2.59318 4.37761 2.9863 4.50814C4.43634 4.9896 5.59902 5.90219 6.19462 7.44479C6.34381 7.8312 6.15151 8.2654 5.7651 8.41459C5.37869 8.56378 4.94449 8.37148 4.7953 7.98507C4.3909 6.93767 3.62358 6.30026 2.51362 5.93172C2.12051 5.80119 1.90764 5.3767 2.03817 4.98359Z" fill-rule="evenodd" clip-rule="evenodd"></path></svg>