<svg xmlns:xlink="http://www.w3.org/1999/xlink" width="40" height="40" viewBox="0 0 24 24" fill="#999999" stroke-width="1" class="m-auto lg:ml-2 lg:inline-block text-xs lg:text-base" xmlns="http://www.w3.org/2000/svg"><path d="M12.475 3.75C12.09 3.75 11.72 3.785 11.35 3.835C15.37 4.385 18.475 7.825 18.475 12C18.475 16.175 15.375 19.615 11.35 20.165C11.72 20.215 12.09 20.25 12.475 20.25C17.03 20.25 20.725 16.555 20.725 12C20.725 7.445 17.03 3.75 12.475 3.75Z" opacity="0.3" fill="#CDCDCD"></path><path d="M12.475 21C8.345 21 4.755 18.205 3.75 14.205L5.205 13.84C6.04 17.17 9.03 19.5 12.475 19.5C16.61 19.5 19.975 16.135 19.975 12C19.975 7.865 16.61 4.5 12.475 4.5C9.61 4.5 7.035 6.095 5.755 8.66L4.415 7.995C5.945 4.915 9.035 3 12.475 3C17.435 3 21.475 7.035 21.475 12C21.475 16.965 17.435 21 12.475 21Z" fill="#999999"></path><path d="M7.64007 8.62499L4.53007 11.695C4.39507 11.83 4.16007 11.765 4.11007 11.58L3.01007 7.35499C2.96007 7.16999 3.13007 6.99999 3.31507 7.04999L7.53007 8.20499C7.71507 8.25499 7.77507 8.48999 7.64007 8.62499Z" fill="#CDCDCD"></path><path d="M15.0213 10.1176C14.9808 9.53373 14.7328 8.98862 14.3284 8.59477C13.924 8.20083 13.394 7.98817 12.8477 8.00051H11.8926C11.3391 8.00107 10.8084 8.23688 10.4171 8.65627C10.0257 9.07556 9.80556 9.64419 9.80495 10.2372C9.80495 10.437 9.90447 10.6216 10.0659 10.7215C10.2274 10.8214 10.4263 10.8214 10.5878 10.7215C10.7493 10.6216 10.8488 10.437 10.8488 10.2372C10.8491 9.94076 10.9592 9.65655 11.1549 9.44686C11.3506 9.23725 11.6159 9.1193 11.8926 9.11882H12.8477C13.1258 9.1103 13.3966 9.2144 13.6062 9.41033C13.8158 9.60627 13.9488 9.87972 13.9786 10.1761C13.9942 10.4828 13.8914 10.7829 13.6943 11.006C13.4972 11.2291 13.2231 11.3555 12.9363 11.3556H12.4145C12.228 11.3556 12.0557 11.4622 11.9625 11.6352C11.8693 11.8082 11.8693 12.0214 11.9625 12.1944C12.0557 12.3674 12.228 12.474 12.4145 12.474H12.9363C13.223 12.474 13.4971 12.6003 13.6942 12.8232C13.8913 13.0462 13.9942 13.3462 13.9787 13.653C13.949 13.9494 13.816 14.2229 13.6064 14.4191C13.3968 14.6151 13.1258 14.7193 12.8476 14.7108H11.8926C11.6159 14.7103 11.3505 14.5923 11.1549 14.3827C10.9592 14.173 10.8491 13.8888 10.8488 13.5924C10.8488 13.3926 10.7492 13.208 10.5878 13.1081C10.4263 13.0082 10.2274 13.0082 10.0659 13.1081C9.90444 13.208 9.80493 13.3926 9.80493 13.5924C9.80554 14.1854 10.0256 14.754 10.4171 15.1733C10.8084 15.5927 11.3391 15.8285 11.8926 15.8291H12.8476C13.3942 15.8414 13.9242 15.6287 14.3287 15.2347C14.7331 14.8407 14.981 14.2955 15.0214 13.7114C15.0537 13.0976 14.847 12.4969 14.4506 12.0524C14.4049 12.0008 14.3504 11.9611 14.3007 11.9148C14.3504 11.8685 14.4051 11.8288 14.4506 11.7772C14.847 11.3325 15.0536 10.7316 15.0213 10.1176L15.0213 10.1176Z" fill="#999999"></path></svg>