<svg xmlns:xlink="http://www.w3.org/1999/xlink" width="40" height="40" viewBox="0 0 24 24" fill="#999999" stroke-width="1" class="m-auto lg:ml-2 lg:inline-block text-xs lg:text-base" xmlns="http://www.w3.org/2000/svg"><path opacity="0.3" d="M18.975 5.02507C18.525 4.96657 18.525 4.91707 18.075 4.87207V16.9501H18.975C19.722 16.9501 20.325 16.3471 20.325 15.6001V6.37507C20.325 5.62807 19.722 5.02507 18.975 5.02507Z" fill="#CDCDCD"></path><path fill-rule="evenodd" clip-rule="evenodd" d="M7.104 14.25C7.104 13.8772 7.40621 13.575 7.779 13.575H16.221C16.5938 13.575 16.896 13.8772 16.896 14.25C16.896 14.6227 16.5938 14.925 16.221 14.925H7.779C7.40621 14.925 7.104 14.6227 7.104 14.25Z" fill="#999999"></path><path fill-rule="evenodd" clip-rule="evenodd" d="M18.8888 5.69447C14.2975 5.10334 9.70247 5.10334 5.1112 5.69447L5.06827 5.7H5.025C4.65079 5.7 4.35 6.00079 4.35 6.375V15.6C4.35 15.9742 4.65079 16.275 5.025 16.275H9.156C9.54156 16.275 9.91269 16.4165 10.1984 16.6705L10.2385 16.7061L11.8859 18.7195C11.9565 18.7631 12.0476 18.7632 12.1184 18.7197L13.7612 16.7064L13.8016 16.6705C14.0873 16.4165 14.4584 16.275 14.844 16.275H18.975C19.3492 16.275 19.65 15.9742 19.65 15.6V6.375C19.65 6.00079 19.3492 5.7 18.975 5.7H18.9317L18.8888 5.69447ZM19.0224 4.35054C14.3425 3.75132 9.6575 3.75132 4.97763 4.35054C3.87979 4.37564 3 5.27104 3 6.375V15.6C3 16.7198 3.90521 17.625 5.025 17.625H9.156C9.19881 17.625 9.23948 17.6372 9.2734 17.6584L10.9231 19.6747L10.9646 19.7112C11.557 20.2326 12.4475 20.2326 13.0399 19.7112L13.0818 19.6744L14.7269 17.6583C14.7607 17.6372 14.8013 17.625 14.844 17.625H18.975C20.0948 17.625 21 16.7198 21 15.6V6.375C21 5.27104 20.1202 4.37564 19.0224 4.35054Z" fill="#999999"></path><path d="M15.6 12H8.40005C7.65305 12 7.05005 11.397 7.05005 10.65V7.95003C7.05005 7.20303 7.65305 6.60003 8.40005 6.60003C10.7985 6.29853 13.2015 6.29853 15.6 6.60003C16.347 6.60003 16.95 7.20303 16.95 7.95003V10.65C16.95 11.397 16.347 12 15.6 12Z" fill="#CDCDCD"></path></svg>