<svg xmlns:xlink="http://www.w3.org/1999/xlink" width="20" height="20" viewBox="0 0 24 24" fill="currentColor" stroke-width="1" class="text-neutral-400" xmlns="http://www.w3.org/2000/svg"><path d="M12.0022 3H11.9978C7.03538 3 3 7.0365 3 12C3 13.9688 3.6345 15.7935 4.71337 17.2751L3.59175 20.6186L7.05113 19.5128C8.47425 20.4555 10.1719 21 12.0022 21C16.9646 21 21 16.9624 21 12C21 7.03763 16.9646 3 12.0022 3Z" fill="#4C4C4C"></path><path d="M16.8213 15.6596C16.6175 16.2775 15.8091 16.7899 15.1642 16.9396C14.723 17.0405 14.1467 17.121 12.2067 16.2571C9.72525 15.1528 8.12725 12.4443 8.00271 12.2685C7.88344 12.0928 7 10.8343 7 9.53279C7 8.23125 7.61535 7.59749 7.86338 7.32539C8.06709 7.10204 8.40379 7 8.72677 7C8.83126 7 8.9252 7.00567 9.00964 7.0102C9.25768 7.02154 9.38222 7.03741 9.54582 7.45803C9.74953 7.98523 10.2456 9.28677 10.3047 9.42055C10.3649 9.55433 10.425 9.73573 10.3406 9.91147C10.2614 10.0929 10.1918 10.1734 10.0672 10.3276C9.94268 10.4817 9.82447 10.5997 9.69992 10.7652C9.58593 10.9092 9.45716 11.0634 9.60071 11.3298C9.74425 11.5905 10.2403 12.4601 10.9707 13.1585C11.9133 14.0598 12.6774 14.3478 12.9508 14.4703C13.1545 14.561 13.3973 14.5394 13.5461 14.3694C13.735 14.1506 13.9683 13.7878 14.2058 13.4306C14.3747 13.1744 14.5879 13.1426 14.8116 13.2333C15.0396 13.3184 16.246 13.9589 16.4941 14.0916C16.7421 14.2254 16.9057 14.2889 16.9659 14.4011C17.025 14.5133 17.025 15.0405 16.8213 15.6596Z" fill="#FFFFFF"></path></svg>